<svg width="60" height="61" viewBox="0 0 60 61" fill="none" xmlns="http://www.w3.org/2000/svg">
<path d="M17.5181 46.8239C16.3692 46.8239 15.4687 46.5134 14.8167 45.8614C13.2641 44.2778 13.6057 40.8622 15.7172 36.515C19.878 28.0071 29.628 18.1329 37.4528 14.4999C41.0237 12.8542 43.7562 12.699 45.1224 14.1273C46.6749 15.7109 46.3334 19.1265 44.2219 23.4736C40.0611 31.9816 30.3111 41.8558 22.4863 45.4887C20.5922 46.3892 18.8844 46.8239 17.5181 46.8239ZM37.546 14.6862C29.7522 18.2881 20.0332 28.1313 15.9035 36.6082C13.823 40.8932 13.4504 44.2157 14.9409 45.7682C16.2761 47.1034 18.9154 46.9792 22.4242 45.3335C30.2179 41.7316 39.9369 31.8884 44.0667 23.4115C46.1471 19.1265 46.5197 15.804 45.0292 14.2515C43.6941 12.9163 41.0547 13.0405 37.546 14.6862Z" fill="#00A79D"/>
<path d="M16.7056 47.0739C15.3704 47.0739 14.3147 46.7013 13.6626 45.925C12.079 44.1241 12.669 40.398 15.2462 35.7403C20.1212 26.9218 30.7096 17.1408 38.8139 13.9736C42.3848 12.5763 45.0551 12.6384 46.3593 14.1289C47.9429 15.9298 47.3529 19.6559 44.7757 24.3136C39.9007 33.132 29.3123 42.9131 21.208 46.0803C19.4692 46.7323 17.9477 47.0739 16.7056 47.0739ZM43.2852 13.1042C42.0432 13.1042 40.5528 13.4457 38.8449 14.0978C30.7717 17.265 20.2144 26.984 15.3704 35.8024C12.8243 40.398 12.2343 44.062 13.7558 45.8008C14.9978 47.2292 17.6061 47.2602 21.1149 45.894C29.1881 42.7268 39.7454 33.0078 44.5894 24.1894C47.1356 19.5938 47.7255 15.9298 46.204 14.191C45.583 13.4768 44.5894 13.1042 43.2852 13.1042Z" fill="#00A79D"/>
<path d="M15.9609 47.2291C14.3773 47.2291 13.1974 46.7634 12.4522 45.8319C10.8686 43.7825 11.7069 39.7769 14.781 34.7777C20.4012 25.6798 31.7969 16.1161 40.1496 13.4457C43.6894 12.3279 46.2977 12.5453 47.5397 14.1288C49.1233 16.1782 48.285 20.1838 45.2109 25.183C39.5907 34.2809 28.195 43.8446 19.8423 46.515C18.3829 47.0118 17.0477 47.2291 15.9609 47.2291ZM44.062 12.9489C42.9752 12.9489 41.6711 13.1663 40.2117 13.632C31.89 16.3024 20.5565 25.8351 14.9362 34.9019C11.8932 39.808 11.0238 43.7514 12.5764 45.7387C13.7563 47.2602 16.3025 47.4776 19.7802 46.3597C28.1018 43.6893 39.4354 34.1567 45.0556 25.0898C48.0986 20.1838 48.9681 16.2403 47.4155 14.2531C46.7324 13.3836 45.5835 12.9489 44.062 12.9489Z" fill="#00A79D"/>
<path d="M15.2479 47.3831C13.3849 47.3831 12.0497 46.8242 11.2734 45.7063C9.65874 43.3775 10.8387 39.0304 14.4406 33.7828C20.8371 24.4675 33.0091 15.1833 41.5791 13.0718C45.1189 12.2024 47.603 12.6371 48.7519 14.3138C50.3665 16.6427 49.1866 20.9898 45.5847 26.2374C39.1882 35.5527 27.0162 44.8369 18.4462 46.9484C17.2352 47.2278 16.1794 47.3831 15.2479 47.3831ZM44.7774 12.8234C43.8458 12.8234 42.7901 12.9787 41.6412 13.2581C33.1022 15.3696 20.9923 24.6228 14.5958 33.8759C11.025 39.0614 9.8761 43.3465 11.4286 45.5821C12.5465 47.1968 14.9685 47.6005 18.4151 46.7621C26.9541 44.6506 39.064 35.3974 45.4605 26.1443C49.0313 20.9587 50.1802 16.6737 48.6277 14.438C47.8514 13.3513 46.5473 12.8234 44.7774 12.8234Z" fill="#00A79D"/>
<path d="M14.684 47.4466C12.4483 47.4466 10.8958 46.7634 10.0574 45.3972C8.4738 42.7889 9.96425 38.1002 14.1251 32.6042C21.2978 23.1337 34.2461 14.222 42.9714 12.7627C46.4181 12.1727 48.809 12.8248 49.8958 14.5947C51.4794 17.2029 49.9889 21.8916 45.8281 27.3876C38.6553 36.8582 25.7071 45.7698 16.9818 47.2292C16.1744 47.3845 15.3982 47.4466 14.684 47.4466ZM45.3002 12.7316C44.6171 12.7316 43.8408 12.7937 43.0025 12.949C34.3392 14.4084 21.422 23.2889 14.2803 32.7284C10.2127 38.1002 8.69116 42.82 10.2127 45.3351C11.2373 47.0429 13.5972 47.6639 16.9507 47.0739C25.6139 45.6146 38.5311 36.734 45.6728 27.2945C49.7405 21.9227 51.262 17.2029 49.7405 14.6878C48.9953 13.4147 47.4738 12.7316 45.3002 12.7316Z" fill="#00A79D"/>
<path d="M14.2872 47.4773C11.6169 47.4773 9.7538 46.6389 8.91542 44.9932C7.39393 42.0744 9.28803 36.9821 14.0078 31.3308C21.9879 21.7671 35.6503 13.3523 44.4688 12.576C47.8223 12.2966 50.12 13.1349 51.1137 14.998C52.6352 17.9168 50.741 23.0091 46.0213 28.6604C38.0412 38.2241 24.3788 46.6389 15.5603 47.4152C15.1256 47.4773 14.6909 47.4773 14.2872 47.4773ZM44.4688 12.7623C35.6813 13.5386 22.081 21.9224 14.132 31.455C9.47434 37.0442 7.58023 42.0744 9.07068 44.9311C10.0333 46.7321 12.2689 47.5394 15.5293 47.2599C24.3167 46.4836 37.917 38.0999 45.866 28.5673C50.5237 22.9781 52.4178 17.9478 50.9273 15.0911C49.9648 13.2902 47.7291 12.4829 44.4688 12.7623Z" fill="#00A79D"/>
<path d="M14.097 47.5083C10.8366 47.5083 8.66306 46.4525 7.76259 44.4653C6.30319 41.1739 8.63201 35.771 13.9417 29.9645C22.7291 20.3698 37.0747 12.5449 45.9242 12.5449C49.1845 12.5449 51.3581 13.6007 52.2586 15.5879C53.718 18.8793 51.3892 24.2822 46.0795 30.0887C37.292 39.6834 22.9465 47.5083 14.097 47.5083ZM45.8931 12.7002C37.1057 12.7002 22.8223 20.494 14.0659 30.0577C8.81832 35.8021 6.52055 41.1428 7.91784 44.3721C8.75622 46.2973 10.8987 47.322 14.0659 47.322C22.8844 47.322 37.1678 39.5282 45.9242 29.9645C51.2029 24.2201 53.5006 18.8483 52.0723 15.65C51.2339 13.7249 49.0914 12.7002 45.8931 12.7002C45.9242 12.7002 45.9242 12.7002 45.8931 12.7002Z" fill="#00A79D"/>
<path d="M14.1001 47.5075C13.6033 47.5075 13.1065 47.4764 12.6097 47.4454C9.47351 47.1349 7.3931 45.8618 6.64788 43.7503C5.31269 40.0552 8.07622 34.3419 13.9759 28.4422C23.5706 18.8785 38.5372 11.7678 47.3557 12.6062C50.4918 12.9167 52.5722 14.1898 53.3174 16.3013C54.6526 19.9963 51.8891 25.7097 45.9894 31.6094C36.9225 40.6452 23.0428 47.5075 14.1001 47.5075ZM45.8963 12.6994C37.0157 12.6994 23.167 19.5306 14.1312 28.5664C8.26253 34.404 5.53004 40.0863 6.83418 43.6882C7.57941 45.7376 9.56667 46.9796 12.6407 47.2591C21.3971 48.0974 36.3326 41.0178 45.8963 31.4852C51.7649 25.6476 54.4974 19.9653 53.1932 16.3634C52.448 14.314 50.4608 13.072 47.3867 12.7925C46.8899 12.7304 46.3931 12.6994 45.8963 12.6994Z" fill="#00A79D"/>
<path d="M14.3444 47.5082C13.1955 47.5082 12.1398 47.4151 11.1461 47.2288C8.13418 46.6388 6.20902 45.1173 5.588 42.8506C4.43912 38.7208 7.66842 32.728 14.1891 26.7972C24.5912 17.3267 40.1167 11.0544 48.842 12.8243C51.8539 13.4143 53.7791 14.9358 54.4001 17.2025C55.549 21.3323 52.3197 27.3251 45.799 33.2558C36.5768 41.6085 23.3181 47.5082 14.3444 47.5082ZM45.6437 12.6691C36.7321 12.6691 23.5044 18.5377 14.3133 26.8904C7.85472 32.7901 4.65647 38.7208 5.77431 42.7574C6.39533 44.9621 8.25838 46.4214 11.2082 47.0114C12.1708 47.1977 13.2576 47.2909 14.3754 47.2909C23.287 47.2909 36.5147 41.4222 45.7058 33.0695C52.1644 27.1699 55.3627 21.2391 54.2448 17.2025C53.6238 14.9979 51.7608 13.5385 48.8109 12.9485C47.8173 12.7622 46.7616 12.6691 45.6437 12.6691Z" fill="#00A79D"/>
<path d="M14.9025 47.5695C12.9773 47.5695 11.2385 47.3521 9.74801 46.8553C6.86027 45.9238 5.09037 44.1539 4.59355 41.7319C3.69307 37.1674 7.41919 30.9262 14.5299 25.0265C25.7082 15.7733 41.7305 10.4636 50.2695 13.165C53.1572 14.0965 54.9271 15.8664 55.4239 18.2884C56.3244 22.8529 52.5983 29.0941 45.4876 34.9938C36.2655 42.6013 23.783 47.5695 14.9025 47.5695ZM45.084 12.6371C36.2345 12.6371 23.8141 17.5742 14.623 25.1817C7.57444 31.0193 3.87938 37.1984 4.74881 41.7008C5.21457 44.0607 6.95342 45.7685 9.77906 46.669C18.256 49.3704 34.2161 44.0607 45.3324 34.8386C52.3809 29.001 56.076 22.8219 55.2066 18.3195C54.7408 15.9596 53.002 14.2518 50.1763 13.3513C48.7169 12.8545 46.9781 12.6371 45.084 12.6371Z" fill="#00A79D"/>
<path d="M15.7782 47.695C12.9215 47.695 10.4064 47.2603 8.35699 46.3287C5.59346 45.0867 3.97881 43.0373 3.69935 40.398C3.14044 35.3367 7.39441 28.9092 15.0329 23.1647C26.9876 14.191 43.4135 9.96809 51.6731 13.6942C54.4366 14.9362 56.0512 16.9856 56.3307 19.6249C56.8896 24.6862 52.6356 31.1138 44.9971 36.8582C35.9923 43.5963 24.4414 47.695 15.7782 47.695ZM44.2208 12.5143C35.5887 12.5143 24.0998 16.5819 15.1261 23.32C7.51862 29.0334 3.32674 35.3988 3.85461 40.398C4.13407 42.9442 5.71766 44.9625 8.4191 46.1735C16.6165 49.8996 32.9804 45.6767 44.8729 36.734C52.4804 31.0206 56.6723 24.6552 56.1444 19.656C55.8649 17.1098 54.2813 15.0915 51.5799 13.8805C49.5616 12.949 47.0465 12.5143 44.2208 12.5143Z" fill="#00A79D"/>
<path d="M16.9862 47.9123C13.0117 47.9123 9.56503 47.1671 7.01886 45.6145C4.37953 43.9999 2.95118 41.64 2.88908 38.7833C2.76488 33.2562 7.54672 26.6734 15.6821 21.1774C28.3509 12.6074 45.1184 9.56437 53.0053 14.4083C55.6446 16.023 57.073 18.3828 57.1351 21.2395C57.2593 26.7666 52.4774 33.3494 44.3421 38.8454C35.741 44.6519 25.2768 47.9123 16.9862 47.9123ZM43.0069 12.2658C34.7473 12.2658 24.3142 15.5261 15.7752 21.3327C7.70198 26.7976 2.95118 33.3183 3.07539 38.7833C3.13749 41.5779 4.53478 43.8757 7.11201 45.4593C14.9679 50.2721 31.6112 47.2292 44.2489 38.6901C52.3222 33.2252 57.073 26.7045 56.9488 21.2395C56.8867 18.4449 55.4894 16.1472 52.9122 14.5636C50.366 13.011 46.9504 12.2658 43.0069 12.2658Z" fill="#00A79D"/>
<path d="M18.5102 48.2834C13.2626 48.2834 8.72915 47.1035 5.71721 44.7126C3.20209 42.6943 1.9911 39.9928 2.20846 36.8567C2.61212 30.8949 7.95288 24.25 16.4608 19.0955C29.8438 11.0223 46.7976 9.3145 54.2498 15.3073C56.765 17.3256 57.976 20.0271 57.7586 23.1632C57.3549 29.125 52.0142 35.7699 43.5062 40.9244C35.5261 45.7373 26.2729 48.2834 18.5102 48.2834ZM41.4879 11.8917C33.7873 11.8917 24.5651 14.4379 16.585 19.2508C8.10813 24.3742 2.79842 30.957 2.39476 36.8877C2.1774 39.9618 3.38839 42.6011 5.84142 44.5884C13.2315 50.5501 30.0922 48.8423 43.4131 40.7691C51.89 35.6457 57.1997 29.0629 57.6033 23.1322C57.8207 20.0581 56.6097 17.4188 54.1567 15.4315C51.1758 13.0406 46.6734 11.8917 41.4879 11.8917Z" fill="#00A79D"/>
<path d="M20.3133 48.8733C13.6684 48.8733 7.8929 47.1345 4.53939 43.6257C2.17952 41.1727 1.21694 38.0366 1.77586 34.5899C2.76949 28.2555 8.66917 21.6417 17.4876 16.9219C31.5227 9.43865 48.5696 9.19024 55.4629 16.3941C57.8228 18.8471 58.7854 21.9832 58.2265 25.4299C57.2018 31.7953 51.3332 38.3781 42.4837 43.0979C35.3109 46.9171 27.3308 48.8733 20.3133 48.8733ZM39.6891 11.3017C32.7026 11.3017 24.7536 13.2269 17.5497 17.0772C8.79337 21.7659 2.9558 28.3176 1.93111 34.621C1.40325 38.0055 2.33478 41.0796 4.6636 43.5015C11.5259 50.6432 28.4486 50.3948 42.4215 42.9426C51.209 38.2539 57.0465 31.7022 58.0712 25.3988C58.5991 22.0143 57.6676 18.9402 55.3387 16.5183C52.0163 13.0406 46.3029 11.3017 39.6891 11.3017Z" fill="#00A79D"/>
<path d="M22.237 49.6812C14.1016 49.6812 7.02201 47.1661 3.45115 42.3532C1.24653 39.3723 0.594464 35.7704 1.55704 31.9822C3.26484 25.3373 9.66134 18.8476 18.6661 14.6868C33.2911 7.91771 50.307 9.2529 56.5483 17.6988C58.7529 20.6796 59.405 24.2816 58.4424 28.0698C56.7346 34.7147 50.3381 41.2043 41.3333 45.3651C35.061 48.2529 28.354 49.6812 22.237 49.6812ZM37.7624 10.526C31.6765 10.526 25.0005 11.9233 18.7282 14.8421C9.75449 19.0029 3.38905 25.4304 1.7123 32.0443C0.749719 35.7704 1.40179 39.3102 3.57535 42.2601C9.78554 50.6438 26.6773 51.979 41.2402 45.2409C50.2139 41.0801 56.5793 34.6526 58.2561 28.0387C59.2187 24.3126 58.5666 20.7728 56.393 17.823C52.8843 13.0101 45.8667 10.526 37.7624 10.526Z" fill="#00A79D"/>
<path d="M24.1587 50.7361C14.5019 50.7361 6.05602 47.2273 2.45411 40.8308C0.435803 37.2289 0.156344 33.1302 1.64679 28.9383C4.06876 22.1071 10.9621 15.8969 20.0289 12.326C35.2129 6.36426 52.0114 9.43831 57.5074 19.1883C59.5257 22.7902 59.8052 26.8889 58.3148 31.0808C55.8928 37.912 48.9995 44.1222 39.9326 47.6931C34.716 49.7424 29.2821 50.7361 24.1587 50.7361ZM35.8339 9.46936C30.7415 9.46936 25.3387 10.4319 20.1221 12.5123C11.0863 16.0522 4.22402 22.2002 1.8331 29.0004C0.373701 33.1302 0.65316 37.1978 2.64042 40.7377C8.07434 50.3945 24.8108 53.4375 39.9016 47.5068C48.9374 43.9669 55.7686 37.7878 58.1906 30.9877C59.65 26.8579 59.3705 22.7902 57.3832 19.2504C53.8124 12.9471 45.4286 9.46936 35.8339 9.46936Z" fill="#00A79D"/>
<path d="M25.956 52.0411C14.8088 52.0411 5.0277 47.2282 1.6121 39.0929C-0.157804 34.8078 0.0285014 30.1191 2.13997 25.5236C5.30716 18.6613 12.6041 12.8238 21.64 9.93603C37.2896 4.93682 53.7466 9.84288 58.3732 20.897C60.1742 25.182 59.9879 29.8707 57.8764 34.4663C54.7092 41.3285 47.4122 47.1661 38.3764 50.0849C34.2156 51.4201 29.9927 52.0411 25.956 52.0411ZM34.0293 8.13507C29.9927 8.13507 25.8008 8.75609 21.671 10.0913C12.6973 12.979 5.43137 18.7545 2.29522 25.6168C0.183756 30.1502 0.0285014 34.8078 1.79841 39.0618C5.15191 47.1351 14.8709 51.8858 25.956 51.8858C29.9927 51.8858 34.1845 51.2648 38.3143 49.9296C47.288 47.0419 54.554 41.2664 57.6901 34.4042C59.8016 29.8707 59.9568 25.2131 58.1869 20.9591C54.8334 12.9169 45.1145 8.13507 34.0293 8.13507Z" fill="#00A79D"/>
<path d="M27.5133 53.6564C14.9377 53.6564 3.91457 47.2288 0.964732 37.1683C-0.525714 32.076 0.219509 26.7352 3.0762 21.7671C7.01967 14.9048 14.4408 9.71931 23.4146 7.48364C39.4368 3.54017 55.4281 10.4335 59.061 22.8539C60.5515 27.9462 59.8063 33.287 56.9496 38.2551C53.0061 45.1174 45.5849 50.3029 36.6112 52.5386C33.5372 53.2838 30.4631 53.6564 27.5133 53.6564ZM32.5125 6.55212C29.5627 6.55212 26.5197 6.89368 23.4456 7.66995C14.5029 9.84351 7.14387 15.029 3.2004 21.8292C0.343713 26.7663 -0.370459 32.076 1.08894 37.1062C4.00772 47.0736 14.9687 53.439 27.4822 53.439C30.4321 53.439 33.4751 53.0975 36.5491 52.3212C45.4918 50.1166 52.8819 44.9311 56.7943 38.1309C59.651 33.1938 60.3652 27.8841 58.9058 22.8539C55.956 12.9176 45.026 6.55212 32.5125 6.55212Z" fill="#00A79D"/>
<path d="M28.6959 55.5198C14.754 55.5198 2.64412 47.1361 0.408455 35.0262C-0.678328 29.0955 0.750016 22.9474 4.44508 17.6687C9.04062 11.0859 16.6791 6.49038 25.3734 4.99994C41.6752 2.2364 57.0143 11.2101 59.5605 24.9967C60.6473 30.9275 59.2189 37.0756 55.5239 42.3542C50.9283 48.937 43.2898 53.5326 34.5955 55.023C32.6083 55.3646 30.6521 55.5198 28.6959 55.5198ZM31.3041 4.68943C29.379 4.68943 27.4228 4.84468 25.4355 5.18624C16.7723 6.64564 9.19587 11.2412 4.60033 17.7619C0.936321 22.9784 -0.460971 29.0955 0.594761 34.9641C2.79938 46.9808 14.8161 55.3335 28.6959 55.3335C30.621 55.3335 32.5772 55.1783 34.5645 54.8367C43.2277 53.3773 50.8041 48.7818 55.3997 42.2611C59.0637 37.0135 60.492 30.9275 59.4052 25.0278C57.2006 13.0111 45.1839 4.68943 31.3041 4.68943Z" fill="#00A79D"/>
<path d="M29.5309 57.6309C14.2539 57.6309 1.33668 46.8872 0.0946406 32.6038C-1.2095 17.4509 11.1177 3.94377 27.6058 2.48438C35.5859 1.80126 43.3486 3.97483 49.4346 8.69457C55.5516 13.3833 59.2467 20.0282 59.8988 27.3872C60.5508 34.7463 58.0357 41.9191 52.8502 47.6014C47.6647 53.2837 40.3988 56.7925 32.4187 57.5066C31.4561 57.5998 30.4935 57.6309 29.5309 57.6309ZM30.4935 2.54648C29.5309 2.54648 28.5684 2.57753 27.6058 2.67069C11.2109 4.09903 -1.02319 17.5441 0.280946 32.6038C1.52298 46.7941 14.3781 57.4756 29.5309 57.4756C30.4625 57.4756 31.425 57.4445 32.3876 57.3514C40.3367 56.6683 47.5405 53.1595 52.6949 47.5082C57.8494 41.857 60.3335 34.7153 59.7125 27.4183C59.0604 20.1213 55.3964 13.5385 49.3104 8.84982C44.0007 4.7511 37.3868 2.54648 30.4935 2.54648Z" fill="#00A79D"/>
<path d="M30.0021 60.0215C13.4519 60.0215 0.00683594 46.5454 0.00683594 30.0263C0.00683594 13.4761 13.4519 0 30.0021 0C46.5522 0 59.9973 13.4761 59.9973 29.9952C59.9973 46.5454 46.5522 60.0215 30.0021 60.0215ZM30.0021 0.186306C13.545 0.186306 0.162091 13.5693 0.162091 30.0263C0.162091 46.4833 13.545 59.8662 30.0021 59.8662C46.459 59.8662 59.842 46.4833 59.842 30.0263C59.842 13.5693 46.459 0.186306 30.0021 0.186306Z" fill="#00A79D"/>
</svg>
