<svg width="1017" height="724" viewBox="0 0 1017 724" fill="none" xmlns="http://www.w3.org/2000/svg">
<path fill-rule="evenodd" clip-rule="evenodd" d="M47.6689 0H0V723.2H47.0005C47.4152 721.647 47.8422 720.096 48.2815 718.547H47.6689V0ZM174.832 0V50H95.5259V617.517C167.057 508.816 296.483 418.599 440.572 369.15V49.3855H361.494V0H174.832ZM488.656 0V354.324C494.088 352.837 499.533 351.408 504.989 350.04V162.925H579.654V192.271H533.223V343.525C591.414 331.256 650.459 325.983 707.749 329.049V192.137H661.318V162.925H735.982V331.258C769.6 334.735 802.448 341.228 833.979 351.019V293.031H867.812V306.184H846.712V355.178C872.295 363.952 896.941 374.974 920.349 388.399V305.012H899.31V291.859H933.143V396.055C958.218 411.7 981.748 430.251 1003.34 451.909C982.393 430.898 958.778 413.682 933.143 399.979V482.916H899.31V469.702H920.349V393.51C897.145 382.424 872.45 374.042 846.712 368.169V470.874H867.812V484.088H833.979V365.484C802.467 359.373 769.537 356.883 735.982 357.672V587.235H661.318V557.889H707.749V359.093C649.424 363.564 589.898 377.492 533.223 399.128V558.023H579.654V587.234H504.989V410.646C499.509 413.028 494.064 415.481 488.656 418.006V717.341H361.494V667.728H440.572V442.892C324.193 509.363 233.41 609.279 213.231 723.2H1016.23V0H488.656Z" fill="#1F1F1F"/>
</svg>
