<svg width="60" height="60" viewBox="0 0 60 60" fill="none" xmlns="http://www.w3.org/2000/svg">
<path d="M45.8967 44.2072C45.8967 45.2658 45.638 46.1589 45.1528 46.7874C44.2148 48.0113 42.4358 48.3752 40.01 47.8459L39.9453 47.8459L29.6595 32.8942C28.9156 31.8356 27.8806 30.744 26.7808 29.884L16.01 21.548C13.8752 19.8941 12.1286 17.5124 12.0315 16.09C11.9992 15.7261 12.0962 15.4284 12.2903 15.2299C13.9075 13.5429 17.4331 13.8737 21.9614 16.1231C30.6946 20.4895 40.8186 30.7109 44.5383 38.9146C45.4439 40.9986 45.8967 42.7517 45.8967 44.2072ZM40.107 47.6144C42.4035 48.0775 44.0531 47.7467 44.9264 46.622C46.0585 45.1665 45.8321 42.4871 44.2795 39.08C40.5922 30.9094 30.5005 20.7541 21.8321 16.4208C17.4331 14.2045 14.0046 13.8737 12.4843 15.4615C12.355 15.5938 12.2903 15.8253 12.3226 16.09C12.4197 17.4131 14.1339 19.7287 16.204 21.3496L26.9426 29.6855C28.0746 30.5456 29.142 31.6702 29.886 32.7619L40.107 47.6144Z" fill="#00A79D"/>
<path d="M46.0583 44.9347C46.0583 46.1917 45.7349 47.2171 45.1203 47.9118C44.0206 49.1688 42.0152 49.4334 39.3306 48.6726L39.2659 48.6726L29.53 32.8938C28.8508 31.7692 27.8157 30.5783 26.6837 29.619L15.8157 20.3569C13.6486 18.5044 11.999 15.9904 11.999 14.568C11.999 14.2041 12.1284 13.9395 12.3548 13.741C14.2632 12.2194 18.0475 12.8479 22.7052 15.4942C31.7618 20.6215 41.7564 31.703 45.0233 40.2043C45.7025 42.0237 46.0583 43.6115 46.0583 44.9347ZM39.4276 48.441C41.9829 49.1688 43.8912 48.9041 44.8939 47.7464C46.123 46.3571 46.0583 43.7438 44.7645 40.3367C41.53 31.8684 31.5678 20.853 22.5758 15.7589C17.9829 13.1787 14.3279 12.5171 12.5165 13.9726C12.3548 14.1049 12.2578 14.3034 12.2578 14.6011C12.2578 15.9243 13.875 18.3721 15.9775 20.1584L26.8454 29.4205C27.9775 30.3798 29.0448 31.6038 29.7564 32.7615L39.4276 48.441Z" fill="#00A79D"/>
<path d="M46.19 45.5949C46.19 47.0835 45.8018 48.2412 44.9932 49.0351C43.6994 50.3252 41.4676 50.4575 38.4919 49.4321L38.4595 49.399L29.3706 32.7933C28.7237 31.6024 27.721 30.3454 26.5889 29.2869L15.6563 19.0655C13.5215 17.0476 11.9366 14.4013 12.066 12.9789C12.0983 12.615 12.26 12.3173 12.5188 12.185C14.7183 10.8287 18.7291 11.8211 23.5485 14.8644C32.8638 20.7525 42.6644 32.6941 45.4137 41.4931C45.9312 43.0809 46.19 44.4371 46.19 45.5949ZM38.6536 49.2005C41.4676 50.1929 43.6024 50.0606 44.8315 48.8697C46.1253 47.5466 46.287 44.9995 45.2196 41.6254C42.5026 32.8925 32.7344 21.0502 23.4514 15.1621C18.7291 12.1519 14.8153 11.1926 12.7129 12.4827C12.5188 12.615 12.4218 12.8135 12.3894 13.0781C12.26 14.4013 13.8126 16.9815 15.8827 18.9331L26.783 29.1215C27.915 30.18 28.9501 31.4701 29.597 32.6941L38.6536 49.2005Z" fill="#00A79D"/>
<path d="M46.255 46.1894C46.255 47.9757 45.7698 49.3319 44.7995 50.192C43.3116 51.5151 40.7887 51.4821 37.5866 50.1589L37.5542 50.1258L29.2739 32.7924C28.6917 31.5684 27.7213 30.1791 26.5893 29.0544L15.689 17.9067C13.5219 15.6904 12.0987 12.978 12.3574 11.5556C12.4221 11.1586 12.6162 10.894 12.9397 10.7617C15.4302 9.60389 19.6998 10.9601 24.6162 14.4004C34.158 21.1154 43.6674 33.884 45.8345 42.8484C46.0933 44.1054 46.255 45.197 46.255 46.1894ZM37.7159 49.8943C40.8211 51.1844 43.2146 51.2174 44.6054 49.9604C46.0286 48.7034 46.3521 46.2556 45.5434 42.9146C43.4087 33.9832 33.9316 21.2808 24.4221 14.5988C19.5704 11.1917 15.4302 9.86852 13.0043 10.9601C12.7779 11.0594 12.6486 11.2578 12.5839 11.5556C12.3574 12.8787 13.7806 15.5581 15.8507 17.6752L26.7186 28.8559C27.8507 30.0137 28.8534 31.403 29.4356 32.66L37.7159 49.8943Z" fill="#00A79D"/>
<path d="M46.2547 46.6196C46.2547 48.7698 45.6402 50.3576 44.4434 51.2838C42.7291 52.6069 39.9475 52.4415 36.4542 50.7214L36.4218 50.6883L29.0472 32.6602C28.5297 31.3701 27.5917 29.9477 26.4919 28.6907L15.7534 16.683C13.651 14.3344 12.3572 11.4896 12.713 10.1003C12.81 9.70331 13.0687 9.43868 13.4245 9.30636C16.2386 8.38015 20.7022 10.1003 25.7156 13.9705C35.4192 21.5126 44.5404 35.075 46.0607 44.2048C46.19 45.098 46.2547 45.8919 46.2547 46.6196ZM36.6159 50.5229C39.9475 52.1438 42.6644 52.3423 44.2817 51.0853C45.8019 49.9275 46.3194 47.5458 45.7696 44.271C44.2817 35.1742 35.1927 21.711 25.5216 14.2021C20.5728 10.3649 16.2062 8.67786 13.4892 9.571C13.2305 9.67023 13.0364 9.86871 12.9717 10.1664C12.6159 11.4565 13.9421 14.2351 15.9475 16.5176L26.686 28.5584C27.8181 29.8154 28.7561 31.304 29.3059 32.5941L36.6159 50.5229Z" fill="#00A79D"/>
<path d="M46.2547 46.9175C46.2547 49.5307 45.5108 51.4162 44.0229 52.4086C42.0822 53.7318 38.9448 53.3348 35.2574 51.2839L35.2251 51.2508L28.9178 32.6604C28.465 31.3372 27.5917 29.8156 26.5243 28.4924L16.0122 15.5254C14.0068 13.0445 12.8423 10.1335 13.3275 8.74417C13.4569 8.31414 13.748 8.0495 14.1685 7.98334C17.2736 7.32177 21.9636 9.40575 27.0095 13.7391C36.81 22.1081 45.4461 36.4314 46.2547 45.6935C46.2224 46.0574 46.2547 46.4874 46.2547 46.9175ZM35.4192 51.0524C39.0095 53.0371 42.0175 53.4341 43.8936 52.1771C45.5108 51.0854 46.2224 48.8361 45.9313 45.6605C45.155 36.4645 36.5512 22.2405 26.783 13.9045C21.8019 9.63731 17.1766 7.55332 14.1685 8.2149C13.845 8.28106 13.651 8.47953 13.5216 8.81033C13.0688 10.1004 14.2008 12.9121 16.1739 15.3269L26.686 28.2609C27.7857 29.6171 28.6591 31.1718 29.1442 32.5281L35.4192 51.0524Z" fill="#00A79D"/>
<path d="M46.2233 46.985C46.2233 50.1606 45.2529 52.41 43.4739 53.4354C41.2421 54.7255 37.8459 54.097 33.8675 51.6491L33.8351 51.6161L28.7246 32.5294C28.3688 31.1732 27.5602 29.5854 26.5252 28.163L16.3365 14.3028C14.3958 11.6565 13.4254 8.74553 14.0076 7.3562C14.2017 6.92617 14.5575 6.66154 15.0103 6.59538C18.4389 6.23151 23.2907 8.71245 28.3688 13.4758C38.2017 22.6718 46.2233 37.7228 46.2233 46.985ZM34.0292 51.4507C37.8783 53.8324 41.1774 54.4609 43.3122 53.2039C45.0265 52.2115 45.9322 50.0613 45.9322 46.985C45.9322 37.7559 37.9429 22.8042 28.1424 13.6412C23.1289 8.944 18.3419 6.46307 14.978 6.82693C14.5899 6.86001 14.3311 7.05849 14.2017 7.42236C13.6518 8.71244 14.6545 11.5903 16.4982 14.1043L26.6869 27.9976C27.7543 29.4531 28.5629 31.0739 28.951 32.4633L34.0292 51.4507Z" fill="#00A79D"/>
<path d="M46.1862 46.817C46.1862 47.3462 46.1538 47.8755 46.1215 48.3717C45.8304 51.415 44.6659 53.532 42.7576 54.4583C40.2023 55.6822 36.515 54.7891 32.3425 51.9112L32.3101 51.8781L28.5581 32.3945C28.2994 31.0052 27.5554 29.3512 26.5527 27.8626L16.7845 13.1424C14.9732 10.4299 14.1969 7.45283 14.8762 6.09658C15.1026 5.63348 15.5231 5.36884 16.0729 5.36884C19.7926 5.30268 24.8384 8.21365 29.8843 13.4071C39.1673 22.8677 46.1862 37.4556 46.1862 46.817ZM32.5042 51.7127C36.5797 54.4913 40.17 55.3845 42.5959 54.1936C44.4395 53.3005 45.5393 51.2827 45.8304 48.3386C46.6713 39.1757 39.426 23.5624 29.6578 13.5394C24.6444 8.41212 19.6956 5.50116 16.0406 5.6004C15.5878 5.6004 15.2643 5.79887 15.0702 6.19582C14.4233 7.45283 15.232 10.3638 16.9786 12.977L26.7468 27.6972C27.7495 29.2189 28.4934 30.939 28.7845 32.3283L32.5042 51.7127Z" fill="#00A79D"/>
<path d="M46.1592 46.4201C46.1592 47.6109 46.0622 48.7356 45.8681 49.7611C45.2859 52.672 43.9274 54.6237 41.8573 55.4507C38.9786 56.5754 35.0002 55.3845 30.6336 52.0766L30.6013 52.0435L28.3371 32.2953C28.1754 30.906 27.5285 29.1859 26.5905 27.5981L17.4045 12.0509C15.7225 9.23915 15.1403 6.29511 15.949 4.93886C16.2401 4.44267 16.7252 4.17804 17.3398 4.21112C21.3829 4.47575 26.5581 7.84982 31.5393 13.4402C40.143 23.0993 46.1592 36.9925 46.1592 46.4201ZM30.8277 51.8451C35.0972 55.0868 38.9786 56.2446 41.7603 55.153C43.7333 54.3922 45.0595 52.4736 45.6093 49.6618C47.3883 40.5982 40.984 24.3894 31.3452 13.5725C26.3964 8.01522 21.2859 4.67423 17.3075 4.44267C16.7899 4.4096 16.4018 4.60807 16.143 5.0381C15.3991 6.2951 16.0137 9.17299 17.5986 11.8855L26.7845 27.4327C27.7549 29.0535 28.4018 30.8067 28.5635 32.2622L30.8277 51.8451Z" fill="#00A79D"/>
<path d="M46.2228 45.6948C46.2228 47.7127 45.9964 49.532 45.4789 51.1198C44.6056 53.8985 42.9883 55.6847 40.8212 56.3794C37.5867 57.3718 33.3172 55.8171 28.8212 52.046L28.7889 52.013L28.142 32.0993C28.1096 30.6769 27.5597 28.9237 26.6864 27.2698L18.1473 10.9618C16.6595 8.08388 16.239 5.17292 17.1446 3.81668C17.5004 3.28741 18.0827 3.05586 18.7619 3.1551C23.1285 3.7836 28.4007 7.5877 33.2848 13.6081C41.1446 23.2672 46.2228 36.3665 46.2228 45.6948ZM29.0153 51.8476C33.4465 55.5524 37.5867 57.041 40.7242 56.0817C42.8266 55.4532 44.3792 53.7 45.2201 51.0206C47.9694 42.1554 42.5355 25.4504 33.1231 13.8066C28.2713 7.81925 23.0638 4.04823 18.7619 3.45281C18.1473 3.35357 17.6945 3.55204 17.3711 4.01515C16.5301 5.23908 16.9506 8.11696 18.3738 10.8625L26.9128 27.1375C27.7862 28.8245 28.336 30.6438 28.3684 32.0993L29.0153 51.8476Z" fill="#00A79D"/>
<path d="M46.3497 44.6008C46.3497 47.5779 45.8969 50.2574 44.9589 52.4075C43.7945 55.0207 41.9508 56.6747 39.5896 57.1709C35.967 57.9317 31.4387 56.0462 26.8457 51.8451L26.8133 51.8121L27.9778 31.9646C28.0748 30.5422 27.6543 28.7559 26.878 27.0358L19.0829 10.0001C17.7891 7.12217 17.5627 4.21121 18.5654 2.88805C19.0182 2.29262 19.6651 2.09414 20.4737 2.25954C25.1314 3.25191 30.5007 7.51912 35.223 13.9696C42.1772 23.3971 46.3497 35.5041 46.3497 44.6008ZM27.0398 51.6798C31.5681 55.8146 35.967 57.6671 39.4926 56.9063C41.7567 56.4101 43.5681 54.8223 44.7001 52.2752C48.5168 43.6746 44.1826 26.5727 35.029 14.1019C30.3389 7.7176 25.0344 3.48347 20.4414 2.4911C19.7621 2.3257 19.2123 2.52417 18.7918 3.02036C17.8538 4.24429 18.0478 7.05602 19.3416 9.83466L27.0721 26.8373C27.8807 28.6236 28.3012 30.476 28.2042 31.8984L27.0398 51.6798Z" fill="#00A79D"/>
<path d="M46.6108 43.18C46.6108 47.3479 45.8345 50.9866 44.2496 53.6661C42.7617 56.147 40.6269 57.6025 38.104 57.9333C34.0932 58.4294 29.3385 56.147 24.7132 51.4828L24.6485 51.4498L27.7536 31.7677C27.98 30.3784 27.6889 28.559 27.0097 26.7396L20.2172 9.10848C19.0851 6.19752 19.0851 3.35271 20.2172 2.0957C20.7671 1.4672 21.511 1.26872 22.4167 1.53336C27.3655 2.95576 32.7671 7.68607 37.2954 14.5004C43.2469 23.4979 46.6108 34.4802 46.6108 43.18ZM24.9072 51.3505C29.4679 55.9154 34.1256 58.1317 38.0393 57.6686C40.4975 57.3709 42.5676 55.9154 43.9908 53.5337C48.9072 45.3301 45.8021 27.8974 37.069 14.6658C32.573 7.88455 27.2037 3.18731 22.3196 1.79799C21.5434 1.56644 20.8641 1.73183 20.3789 2.29418C19.3116 3.48503 19.3439 6.19751 20.4113 9.04232L27.2037 26.6735C27.9153 28.5259 28.1741 30.4114 27.9477 31.8338L24.9072 51.3505Z" fill="#00A79D"/>
<path d="M47.0277 41.4282C47.0277 46.9193 45.8309 51.7158 43.3403 54.8583C41.529 57.1738 39.1031 58.4639 36.3215 58.5632C31.9226 58.7286 26.9738 56.0161 22.3808 50.955L22.3161 50.8888L27.4913 31.5375C27.8471 30.1813 27.7177 28.3288 27.1355 26.4764L21.4104 8.31598C20.4724 5.37193 20.6988 2.69252 21.9603 1.43552C22.6072 0.773933 23.4805 0.608539 24.4832 0.972408C29.6907 2.82484 35.1247 8.01826 39.3942 15.2295C44.4077 23.5985 47.0277 33.2907 47.0277 41.4282ZM22.6395 50.8227C27.1678 55.7845 32.0196 58.4309 36.3215 58.2985C39.0061 58.1993 41.3673 56.9754 43.1463 54.6929C49.2271 46.9524 47.4805 29.3212 39.2325 15.3618C34.9953 8.21674 29.6261 3.0564 24.4509 1.23704C23.5452 0.90625 22.7689 1.07165 22.1867 1.63399C21.0223 2.79176 20.8282 5.43809 21.7015 8.24982L27.4266 26.4103C28.0088 28.2958 28.1382 30.2144 27.7824 31.6368L22.6395 50.8227Z" fill="#00A79D"/>
<path d="M47.6768 39.4102C47.6768 46.3899 45.8978 52.4434 42.2752 55.9829C40.0757 58.133 37.3264 59.1916 34.286 59.0262C29.5313 58.7615 24.4531 55.6521 19.9895 50.2271L19.9248 50.161L27.3318 31.3389C27.8493 30.0158 27.8817 28.1633 27.4288 26.2778L22.9329 7.68736C22.2213 4.80948 22.6741 2.16315 24.0326 0.972297C24.8089 0.277637 25.8439 0.145317 26.9437 0.608425C32.41 2.92396 37.8116 8.5805 41.7577 16.1225C45.6714 23.6646 47.6768 32.0667 47.6768 39.4102ZM20.2483 50.0948C24.6795 55.4205 29.6607 58.4969 34.3183 58.7285C37.2617 58.8938 39.9464 57.8684 42.1135 55.7513C49.4235 48.5732 49.1647 30.8758 41.5313 16.2218C37.6175 8.71281 32.2483 3.08936 26.8466 0.806904C25.8439 0.376873 24.9383 0.476108 24.2267 1.10461C22.9329 2.22931 22.5447 4.74332 23.224 7.55504L27.72 26.1455C28.2051 28.0972 28.1404 30.0158 27.6229 31.372L20.2483 50.0948Z" fill="#00A79D"/>
<path d="M48.5507 37.2237C48.5507 45.7581 45.9631 53.2009 41.0143 56.9389C34.2219 62.0662 24.7448 58.9567 17.4348 49.1984L17.3701 49.1322L27.1383 31.0379C27.8176 29.7809 28.044 27.9285 27.7205 26.0099L24.5507 7.08865C24.0655 4.24385 24.7124 1.76291 26.2003 0.605144C27.1383 -0.122597 28.3027 -0.188752 29.4995 0.406669C35.2246 3.18532 40.5291 9.30495 44.1194 17.1778C47.0952 23.7936 48.5507 30.8395 48.5507 37.2237ZM17.6936 49.1322C24.9065 58.6921 34.1895 61.7684 40.8526 56.7404C44.9604 53.631 47.548 47.8091 48.1302 40.3332C48.7124 32.8573 47.1922 24.6867 43.8607 17.3432C40.3027 9.50343 35.0305 3.44995 29.3701 0.704379C28.238 0.142036 27.203 0.208194 26.3297 0.902858C24.9388 1.96139 24.3566 4.40924 24.8095 7.12173L27.9793 26.043C28.3027 28.0277 28.0763 29.9132 27.3647 31.2364L17.6936 49.1322Z" fill="#00A79D"/>
<path d="M49.7151 35.0758C49.7151 45.2311 46.0924 54.0963 39.5587 57.8673C31.7313 62.3661 21.769 58.4297 14.7825 48.0759L14.7178 48.0097L26.9765 30.8747C27.8498 29.6839 28.238 27.8645 28.0763 25.9129L26.4267 6.76006C26.2002 4.0145 27.0412 1.6328 28.6261 0.574268C29.7259 -0.186555 31.0843 -0.186555 32.3781 0.541186C38.2973 3.81602 43.5048 10.3988 46.6423 18.5693C48.7124 24.0274 49.7151 29.717 49.7151 35.0758ZM15.0412 47.9766C21.9631 58.165 31.7636 62.0353 39.4294 57.6027C44.1841 54.8571 47.5156 49.2998 48.8418 41.8901C50.1679 34.4804 49.2946 26.2106 46.3512 18.6024C43.2461 10.498 38.0709 3.98141 32.2164 0.70658C30.9873 0.0119202 29.7582 0.0449975 28.7232 0.70658C27.2029 1.73203 26.4267 4.01449 26.6531 6.66082L28.3027 25.8136C28.4644 27.8315 28.0763 29.6839 27.1706 30.9409L15.0412 47.9766Z" fill="#00A79D"/>
<path d="M51.1749 32.9946C51.1749 36.6663 50.6898 40.272 49.6871 43.646C47.5523 50.9565 43.3474 56.2823 37.8811 58.6309C29.0509 62.4019 18.6358 57.5724 12.0051 46.6232L11.9404 46.5239L26.7868 30.5136C27.8218 29.3889 28.404 27.6357 28.4364 25.6841L28.404 6.4651C28.404 3.81877 29.4714 1.56939 31.1534 0.610095C32.4472 -0.150727 33.9674 -0.0845652 35.3906 0.80857C41.5038 4.61267 46.5172 11.6254 49.1695 20.0275C50.528 24.2948 51.1749 28.6943 51.1749 32.9946ZM12.2962 46.5901C18.8299 57.3408 29.0833 62.0711 37.8164 58.3663C43.2181 56.0507 47.3582 50.7911 49.4606 43.5468C51.5631 36.3025 51.4013 27.9665 48.9431 20.1268C46.3232 11.7578 41.342 4.81114 35.2935 1.04012C33.935 0.213145 32.5442 0.146991 31.3151 0.841651C29.6978 1.76787 28.6951 3.91801 28.6951 6.4651L28.7275 25.6841C28.7275 27.7019 28.1129 29.5213 27.0132 30.679L12.2962 46.5901Z" fill="#00A79D"/>
<path d="M52.9508 31.3035C52.9508 36.2323 52.0128 41.0288 50.2014 45.3622C47.2257 52.4411 42.1799 57.3699 36.0667 59.1892C26.1044 62.1664 15.3012 56.4437 9.12328 44.9652L9.05859 44.866L26.6219 30.245C27.851 29.2195 28.6597 27.5325 28.8537 25.5808L30.6004 6.42803C30.8268 3.88093 32.0882 1.79695 33.9319 0.903811C35.4521 0.17607 37.1664 0.341468 38.6866 1.4C44.9615 5.73336 49.7486 13.1431 51.8187 21.7767C52.595 24.9523 52.9508 28.161 52.9508 31.3035ZM9.41439 44.9321C15.5276 56.2452 26.1691 61.8686 35.9696 58.9577C42.0182 57.1383 46.9993 52.2757 49.9427 45.2298C52.9184 38.184 53.4683 29.8811 51.5276 21.876C49.4575 13.3085 44.7028 5.93184 38.4925 1.66463C37.037 0.672259 35.4521 0.506861 33.9966 1.20152C32.2176 2.06158 31.0532 4.04633 30.8268 6.49418L29.1125 25.6139C28.9184 27.6317 28.0775 29.3849 26.7837 30.4766L9.41439 44.9321Z" fill="#00A79D"/>
<path d="M55.023 29.949C55.023 36.0687 53.5027 41.9898 50.5917 47.084C46.7103 53.8983 40.7912 58.364 33.9987 59.621C22.9367 61.705 11.7777 55.0561 6.14965 43.0815L6.08496 42.9822L26.4623 29.9821C27.8855 29.0559 28.9205 27.435 29.3087 25.5164L32.9637 6.59518C33.4488 4.14733 34.9044 2.26182 36.8774 1.46792C38.624 0.773257 40.5647 1.07097 42.1496 2.2949C48.5216 7.15753 53.0176 14.9973 54.4731 23.7632C54.8612 25.8472 55.023 27.8981 55.023 29.949ZM6.44076 43.0484C12.0041 54.8576 23.0338 61.4073 33.934 59.3564C40.6618 58.0994 46.5162 53.6668 50.3653 46.9517C54.2143 40.2036 55.6052 31.9999 54.2467 23.8294C52.7912 15.1296 48.3599 7.356 42.0203 2.52645C40.5001 1.36868 38.6564 1.07097 36.9744 1.73255C35.0661 2.49337 33.6753 4.31272 33.2224 6.66134L29.5674 25.5826C29.1793 27.5673 28.1119 29.2544 26.624 30.2137L6.44076 43.0484Z" fill="#00A79D"/>
<path d="M57.3794 28.9891C57.3794 36.2334 55.1153 43.2131 50.8457 48.8696C45.994 55.287 39.2015 59.2234 31.6975 59.885C19.5681 60.9766 8.08562 53.3353 3.13684 40.8975L3.10449 40.7652L3.23387 40.6991L26.3929 29.6176C28.0425 28.8237 29.304 27.302 29.8862 25.4496L35.6112 6.92528C36.3228 4.60975 38.0048 2.85655 40.1395 2.22805C42.1449 1.59955 44.2797 2.06265 45.9616 3.48506C52.4306 8.91003 56.5708 17.1136 57.3147 25.9789C57.3471 27.0043 57.3794 27.9967 57.3794 28.9891ZM3.42794 40.9306C8.34438 53.1699 19.6975 60.6789 31.6975 59.6203C39.1045 58.9587 45.8323 55.0885 50.6517 48.7042C55.4711 42.3199 57.7029 34.2817 56.9913 26.0119C56.2473 17.2129 52.1395 9.07543 45.7352 3.71661C44.118 2.36036 42.1126 1.93033 40.1719 2.52576C38.1341 3.15426 36.5169 4.8413 35.8376 7.0576L30.1126 25.5819C29.498 27.5336 28.1719 29.1214 26.4899 29.9153L3.42794 40.9306Z" fill="#00A79D"/>
<path d="M60 28.4618C60 36.8308 56.7978 44.7036 50.9434 50.691C45.0889 56.6783 37.3908 59.9531 29.2075 59.9531C15.9784 59.9531 4.2372 51.3195 0.0323441 38.4848L-9.03341e-07 38.3525L26.2318 29.3549C28.0755 28.7264 29.5957 27.304 30.4043 25.4847L38.3288 7.55578C39.2992 5.33948 41.1752 3.81784 43.504 3.32165C45.8005 2.82547 48.097 3.45397 49.8113 5.04177C56.2803 10.996 60 19.5304 60 28.4618ZM0.323449 38.5178C4.56065 51.1872 16.1402 59.6554 29.2399 59.6554C37.3261 59.6554 44.9919 56.3806 50.7817 50.4594C56.5714 44.5382 59.7736 36.6985 59.7736 28.4287C59.7736 19.5966 56.0862 11.1283 49.6496 5.20716C48 3.68552 45.7682 3.05702 43.5687 3.55321C41.3369 4.01631 39.5256 5.53795 38.5876 7.65502L30.6631 25.5839C29.7898 27.4694 28.2372 28.9249 26.2965 29.5865L0.323449 38.5178Z" fill="#00A79D"/>
</svg>
