<svg width="60" height="55" viewBox="0 0 60 55" fill="none" xmlns="http://www.w3.org/2000/svg">
<path d="M23.2422 34.7747C22.8744 34.7747 22.5631 34.6899 22.3368 34.4918C21.9124 34.1522 21.8558 33.5014 22.1387 32.7658L25.3927 24.7299C25.8454 23.6264 27.0055 22.4946 28.2505 21.9853C28.9579 21.7023 29.5804 21.6458 30.0614 21.8438L35.777 24.2489C36.1731 24.4187 36.3995 24.7299 36.4278 25.1827C36.5127 26.2013 35.5224 27.6443 34.1642 28.4932L25.1946 34.124C24.4872 34.5484 23.8081 34.7747 23.2422 34.7747ZM29.4389 21.9287C29.1276 21.9287 28.7315 22.0136 28.3354 22.1834C27.147 22.6644 26.0152 23.7679 25.5907 24.8148L22.3368 32.8507C22.0821 33.5015 22.1104 34.0391 22.4783 34.322C22.9876 34.7464 24.0062 34.605 25.0814 33.9259L34.051 28.2951C35.5506 27.3614 36.2863 25.9749 36.2297 25.1827C36.2014 24.8148 36.0317 24.5602 35.6921 24.447L29.9765 22.0419C29.8067 21.957 29.6369 21.9287 29.4389 21.9287Z" fill="#00A79D"/>
<path d="M23.0394 35.7662C22.6998 35.7662 22.3886 35.6813 22.1622 35.5115C21.6812 35.172 21.568 34.5495 21.8227 33.7572L24.6522 25.0423C25.303 23.0333 27.991 21.1093 29.519 21.5903L36.0834 23.5993C36.5362 23.7407 36.8191 24.052 36.904 24.533C37.0738 25.6082 36.14 27.1645 34.697 28.1831L25.303 34.8607C24.4824 35.4549 23.6901 35.7662 23.0394 35.7662ZM29.0096 21.7035C27.5666 21.7035 25.4161 23.3729 24.8502 25.0989L22.0207 33.8138C21.7944 34.5212 21.8792 35.0588 22.2754 35.3418C22.8696 35.7662 24.0297 35.5398 25.1615 34.7193L34.5555 28.0133C36.1117 26.9098 36.8191 25.4101 36.6776 24.5613C36.6211 24.1651 36.3947 23.9105 36.0269 23.7973L29.4624 21.7884C29.3209 21.7318 29.1511 21.7035 29.0096 21.7035Z" fill="#00A79D"/>
<path d="M22.9007 36.7823C22.5894 36.7823 22.3065 36.7257 22.0801 36.556C21.5708 36.2447 21.401 35.5939 21.5991 34.7734L23.8627 25.3511C24.4003 23.1723 27.1733 20.937 28.8993 21.2766L36.3692 22.7762C36.8785 22.8894 37.2181 23.2006 37.3595 23.6817C37.6425 24.8135 36.7653 26.4829 35.2657 27.6996L25.5321 35.5939C24.5984 36.3862 23.6364 36.7823 22.9007 36.7823ZM28.5031 21.5029C26.8903 21.5029 24.5135 23.5402 24.0608 25.436L21.7972 34.8583C21.6274 35.5939 21.7689 36.1315 22.1933 36.4145C22.7875 36.7823 24.0042 36.6409 25.3907 35.5091L35.1242 27.6147C36.7087 26.3131 37.3595 24.7003 37.1332 23.8231C37.02 23.3987 36.737 23.144 36.3126 23.0592L28.8427 21.5595C28.7295 21.5029 28.6163 21.5029 28.5031 21.5029Z" fill="#00A79D"/>
<path d="M22.8415 37.9138C22.5585 37.9138 22.2756 37.8572 22.0492 37.744C21.4833 37.4327 21.257 36.8103 21.3984 35.9614L23.0113 25.8883C23.3791 23.5681 26.2369 20.9649 28.161 21.163L36.5647 22.0401C37.1589 22.0967 37.5833 22.408 37.7531 22.9456C38.1209 24.1057 37.3286 25.9166 35.829 27.3031L25.8125 36.499C24.7939 37.4044 23.7186 37.9138 22.8415 37.9138ZM27.9346 21.3328C26.1237 21.3328 23.5489 23.7662 23.2093 25.8883L21.5965 35.9614C21.4833 36.7254 21.6814 37.2913 22.1341 37.5459C22.8132 37.9138 24.1714 37.6874 25.6427 36.3292L35.6592 27.1333C37.2721 25.6619 37.838 23.9076 37.5267 23.0022C37.3852 22.5495 37.0457 22.2948 36.5081 22.2382L28.1044 21.3611C28.0761 21.3328 28.0195 21.3328 27.9346 21.3328Z" fill="#00A79D"/>
<path d="M22.8953 39.0766C22.6407 39.0766 22.386 39.02 22.1596 38.9351C21.5371 38.6522 21.2542 38.0297 21.3108 37.1525L22.103 26.4286C22.3011 23.9669 25.1872 20.9676 27.3377 21.0242L36.7317 21.194C37.4108 21.194 37.8918 21.5052 38.1464 22.0712C38.6275 23.2313 37.8918 25.2119 36.4204 26.7682L26.2341 37.3223C25.1306 38.4258 23.8856 39.0766 22.8953 39.0766ZM27.3094 21.2223C25.2721 21.2223 22.4709 24.1367 22.3011 26.4569L21.5089 37.1525C21.4523 37.9448 21.7069 38.5107 22.2445 38.737C23.1783 39.1615 24.7628 38.5107 26.0644 37.1525L36.2507 26.5984C37.8918 24.9007 38.3445 23.0615 37.9484 22.1277C37.7503 21.6467 37.3259 21.3921 36.7317 21.3638L27.3377 21.194C27.3377 21.2223 27.3377 21.2223 27.3094 21.2223Z" fill="#00A79D"/>
<path d="M23.0649 40.2944C22.8386 40.2944 22.6122 40.2661 22.3858 40.1813C21.7068 39.9266 21.3389 39.3041 21.3106 38.3987L21.1691 27.0806C21.1409 24.4774 24.0553 21.082 26.4321 20.9122L36.8447 20.2331C37.6087 20.1765 38.2029 20.4878 38.5141 21.082C39.1083 22.2987 38.5141 24.3642 37.0145 26.0902L26.7433 38.0874C25.5832 39.5022 24.1967 40.2944 23.0649 40.2944ZM37.0428 20.4595C36.9862 20.4595 36.9296 20.4595 36.9013 20.4595L26.4886 21.1386C24.225 21.2801 21.3672 24.6189 21.4238 27.0806L21.5653 38.3987C21.5653 39.2192 21.9048 39.7851 22.499 39.9832C23.6025 40.3793 25.3002 39.5588 26.6301 37.9742L36.9013 25.9771C38.5141 24.1096 38.8537 22.1572 38.3726 21.1952C38.0897 20.7142 37.637 20.4595 37.0428 20.4595Z" fill="#00A79D"/>
<path d="M23.3515 41.5647C23.1534 41.5647 22.9553 41.5364 22.7856 41.4798C22.0499 41.2818 21.5972 40.6593 21.484 39.7255L20.239 27.8698C19.956 25.1535 22.8421 21.3336 25.4736 20.9375L36.9332 19.2681C37.8103 19.1266 38.4894 19.4379 38.8855 20.0604C39.6212 21.2771 39.1119 23.4841 37.6688 25.4081L27.4826 38.9333C26.2093 40.5461 24.6247 41.5647 23.3515 41.5647ZM36.9332 19.3813L36.9615 19.4945L25.4736 21.1639C22.9836 21.5317 20.1541 25.295 20.4088 27.8698L21.6538 39.7255C21.7386 40.5744 22.1348 41.112 22.8139 41.3101C24.0588 41.6496 25.898 40.631 27.2562 38.8201L37.4425 25.295C38.8289 23.4558 39.3383 21.3619 38.6309 20.2018C38.2913 19.6359 37.6971 19.3813 36.9049 19.4945L36.9332 19.3813Z" fill="#00A79D"/>
<path d="M23.7759 42.868C23.6344 42.868 23.4646 42.868 23.3231 42.8397C22.5026 42.67 21.965 42.0758 21.7669 41.142L19.2203 28.8336C18.6261 26.0041 21.4556 21.7315 24.3418 21.0807L36.8482 18.2795C37.8386 18.0531 38.6308 18.3078 39.1119 19.0152C39.9607 20.2601 39.5929 22.5804 38.2347 24.6459L28.2465 39.7555C27.0015 41.6513 25.2189 42.868 23.7759 42.868ZM36.8765 18.3644L36.9048 18.4775L24.3983 21.2788C21.682 21.9013 18.8808 26.089 19.4467 28.777L21.9933 41.0854C22.163 41.9626 22.644 42.5002 23.408 42.6417C24.8511 42.9246 26.7751 41.6796 28.1333 39.6424L38.1215 24.5327C39.4514 22.5238 39.8192 20.3167 38.9987 19.1283C38.5742 18.5058 37.8669 18.2795 36.9331 18.4775L36.8765 18.3644Z" fill="#00A79D"/>
<path d="M24.3666 44.1968C24.2817 44.1968 24.1685 44.1968 24.0836 44.1685C23.1782 44.0836 22.5274 43.4894 22.2161 42.5273L18.2265 29.8511C17.8304 28.5495 18.1133 26.8235 19.0188 25.0975C20.0374 23.2017 21.5936 21.7021 23.1216 21.2494L36.7033 17.1465C37.8068 16.807 38.7405 17.0334 39.3347 17.769C40.3251 19.0423 40.127 21.3908 38.8537 23.6827L29.2616 40.4618C27.9883 42.7254 26.0077 44.1968 24.3666 44.1968ZM37.637 17.2314C37.3541 17.2314 37.0711 17.288 36.7599 17.3729L23.1782 21.4757C21.7068 21.9284 20.1789 23.3432 19.1885 25.2107C18.3114 26.8518 18.0284 28.5778 18.4246 29.7945L22.4142 42.4708C22.6971 43.3762 23.2913 43.8855 24.1119 43.9704C25.7247 44.1402 27.762 42.6688 29.0919 40.3769L38.6839 23.5979C39.9289 21.4191 40.127 19.0989 39.1933 17.9388C38.7971 17.4861 38.2595 17.2314 37.637 17.2314Z" fill="#00A79D"/>
<path d="M25.1341 45.5282C25.1058 45.5282 25.1058 45.5282 25.0775 45.5282C24.0871 45.4999 23.2949 44.9623 22.8704 43.972L17.2114 31.0411C16.6455 29.7678 16.787 28.0135 17.5509 26.1743C18.4564 23.9956 20.0975 22.2412 21.7952 21.5905L36.4238 16.0446C37.6688 15.5636 38.744 15.7616 39.4514 16.5539C40.6115 17.7989 40.5832 20.2889 39.3948 22.694L30.4253 41.1425C29.1803 43.7456 27.0015 45.5282 25.1341 45.5282ZM36.4804 16.1578L36.5087 16.2427L21.8801 21.7885C20.239 22.411 18.6544 24.137 17.749 26.2592C17.0133 28.0418 16.8718 29.7395 17.4095 30.9562L23.0685 43.8871C23.4646 44.7925 24.172 45.3019 25.0775 45.3019C26.8884 45.3302 29.0105 43.6041 30.2555 41.0859L39.2251 22.6374C40.3569 20.2889 40.4135 17.9121 39.3099 16.7237C38.6592 15.988 37.6405 15.8465 36.5087 16.271L36.4804 16.1578Z" fill="#00A79D"/>
<path d="M26.0898 46.8589C25.0712 46.8589 24.2506 46.3496 23.713 45.4442L16.2148 32.4284C15.5074 31.1834 15.4508 29.3725 16.0733 27.4767C16.8656 25.015 18.5067 22.9778 20.3742 22.1006L36.0497 14.9419C37.4079 14.3194 38.6529 14.4326 39.53 15.2815C40.8599 16.5547 41.0297 19.0447 39.9545 21.6479L31.8054 41.8224C30.6736 44.6519 28.41 46.7175 26.3162 46.8589C26.2313 46.8589 26.1464 46.8589 26.0898 46.8589ZM37.6626 14.7439C37.1815 14.7439 36.6439 14.857 36.1063 15.1117L20.4308 22.2704C18.5916 23.0909 17.007 25.0999 16.2148 27.505C15.6206 29.3725 15.6772 31.1268 16.3563 32.2869L23.8545 45.3027C24.3921 46.2364 25.2127 46.6892 26.2596 46.6043C28.2685 46.4628 30.4473 44.4538 31.5508 41.7092L39.6998 21.5347C40.7184 19.0447 40.5487 16.5831 39.3037 15.3947C38.9075 14.9702 38.3133 14.7439 37.6626 14.7439Z" fill="#00A79D"/>
<path d="M27.2538 48.1572C26.2635 48.1572 25.3863 47.7045 24.7638 46.884L15.2 33.8964C14.3229 32.708 14.0682 30.8406 14.521 28.8316C15.1152 26.1719 16.8129 23.7668 18.7935 22.6915L35.4311 13.7503C36.9308 12.958 38.3738 12.9863 39.4207 13.8634C40.8921 15.1084 41.2882 17.6833 40.4111 20.3996L33.3373 42.3001C32.3469 45.3277 30.0833 47.7045 27.8197 48.0724C27.6499 48.1572 27.4519 48.1572 27.2538 48.1572ZM35.516 13.8634L35.5726 13.9483L18.935 22.8896C16.9826 23.9365 15.3415 26.285 14.7473 28.8882C14.2946 30.8406 14.5492 32.6232 15.3981 33.7833L24.9619 46.7425C25.6693 47.6762 26.6313 48.0723 27.8197 47.9026C30.0267 47.5347 32.2338 45.2428 33.1675 42.2718L40.2413 20.3713C41.0902 17.7116 40.7506 15.2216 39.3076 14.0615C38.3172 13.2409 36.9874 13.2126 35.5443 13.9766L35.516 13.8634Z" fill="#00A79D"/>
<path d="M28.6731 49.4335C27.711 49.4335 26.8339 49.0373 26.1265 48.3017L14.2708 35.5688C13.1956 34.4087 12.7429 32.5412 13.0258 30.4191C13.4219 27.533 15.0348 24.8449 17.1852 23.5151L34.7565 12.6214C36.3694 11.6028 38.0388 11.5462 39.2838 12.4516C40.9532 13.64 41.5757 16.2715 40.8966 19.1293L35.1527 42.7841C34.3887 45.9815 32.1251 48.6695 29.6917 49.3203C29.3521 49.4052 29.0126 49.4335 28.6731 49.4335ZM34.8414 12.7912L17.2701 23.6848C15.1762 24.9864 13.5917 27.6462 13.2239 30.4474C12.9409 32.5129 13.3936 34.3238 14.4123 35.4273L26.268 48.1602C27.1451 49.0939 28.3335 49.4335 29.6351 49.0939C32.0119 48.4714 34.1906 45.84 34.9546 42.7275L40.6702 19.101C41.3493 16.3281 40.7551 13.7815 39.1423 12.6214C37.9539 11.7726 36.3977 11.8291 34.8414 12.7912Z" fill="#00A79D"/>
<path d="M30.3107 50.649C29.377 50.649 28.4999 50.3377 27.7642 49.6869L13.4185 37.4351C12.1169 36.3316 11.4378 34.4075 11.5227 32.1722C11.6642 29.1163 13.1921 26.117 15.4558 24.5042L33.8476 11.4601C35.602 10.2151 37.4694 10.0453 38.9691 10.9508C40.8649 12.1109 41.7137 14.714 41.2327 17.7416L37.2148 43.0376C36.6772 46.433 34.555 49.3757 31.9519 50.3377C31.3577 50.5358 30.8201 50.649 30.3107 50.649ZM36.8752 10.5829C35.9132 10.5829 34.9229 10.9225 33.9325 11.6299L15.5406 24.674C13.3336 26.2302 11.834 29.1729 11.6925 32.1722C11.6076 34.3509 12.2584 36.1901 13.5034 37.2653L27.8491 49.5171C28.9526 50.4509 30.339 50.6773 31.8104 50.1396C34.357 49.2059 36.4225 46.3481 36.9601 43.0092L40.978 17.7133C41.4308 14.7989 40.6102 12.2806 38.7993 11.1488C38.2334 10.781 37.5543 10.5829 36.8752 10.5829Z" fill="#00A79D"/>
<path d="M32.1746 51.7509C31.2692 51.7509 30.4203 51.4963 29.6563 50.9586L12.5943 39.4142C11.0381 38.3673 10.1043 36.4149 9.99115 34.0381C9.84968 30.8407 11.2644 27.5585 13.5846 25.691L32.6556 10.3267C34.5231 8.79877 36.6453 8.48752 38.3996 9.42126C40.4934 10.5248 41.6535 13.1279 41.4271 16.2404L39.4182 43.1492C39.1635 46.6578 37.1829 49.8834 34.4665 51.185C33.7308 51.5528 32.9386 51.7509 32.1746 51.7509ZM32.7405 10.4116L32.7971 10.4965L13.7261 25.8608C11.4625 27.7 10.076 30.8973 10.1892 34.0381C10.2741 36.33 11.2078 38.2258 12.7075 39.2444L29.7695 50.7889C31.1277 51.7226 32.7688 51.7792 34.4099 50.9869C37.0414 49.7137 38.9938 46.5446 39.2484 43.1209L41.2574 16.2121C41.4837 13.1845 40.3802 10.6663 38.343 9.59104C36.6453 8.6856 34.6363 9.02514 32.8254 10.4965L32.7405 10.4116Z" fill="#00A79D"/>
<path d="M34.358 52.7413C33.5091 52.7413 32.6885 52.5433 31.9246 52.1188L11.8916 41.593C10.0524 40.631 8.80738 38.622 8.49613 36.1038C8.0717 32.7932 9.31669 29.2563 11.6935 27.1059L31.3304 9.25159C33.311 7.4407 35.6595 6.93139 37.7534 7.83683C40.0736 8.85546 41.5449 11.4586 41.6015 14.6277L41.9694 43.0078C42.026 46.6296 40.2717 50.0816 37.4987 51.7793C36.4518 52.4301 35.4049 52.7413 34.358 52.7413ZM31.4435 9.42136L11.8067 27.2757C9.48646 29.3695 8.26977 32.8498 8.6942 36.1038C9.00545 38.5371 10.1938 40.4895 11.9764 41.4233L31.9812 51.9491C33.6506 52.8262 35.5746 52.713 37.3572 51.6095C40.0736 49.9401 41.7713 46.573 41.7147 43.0361L41.3469 14.656C41.3186 11.5435 39.8755 9.02524 37.6402 8.0349C35.6312 7.15775 33.3676 7.66706 31.4435 9.42136Z" fill="#00A79D"/>
<path d="M36.729 53.5918C35.965 53.5918 35.2294 53.4503 34.4937 53.1674L11.3199 43.9714C9.14119 43.0943 7.55665 41.0853 6.99075 38.3973C6.25507 34.9453 7.2737 31.2669 9.67879 28.8052L29.7118 8.26287C31.7491 6.16902 34.4088 5.40505 36.8139 6.22561C39.4454 7.13105 41.1997 9.64933 41.5675 12.9599L44.7366 42.6982C45.1327 46.3482 43.6048 50.0266 40.8884 52.0922C39.6151 53.0825 38.1721 53.5918 36.729 53.5918ZM29.7684 8.31946L29.8533 8.40434L9.84857 28.9467C7.50006 31.3518 6.48144 34.9453 7.21711 38.3407C7.78301 40.9438 9.31096 42.9245 11.4048 43.7734L34.5786 52.9693C36.5875 53.7616 38.8512 53.3937 40.7469 51.9507C43.4067 49.9134 44.878 46.3199 44.5102 42.7264L41.3411 12.9882C41.0016 9.76252 39.2756 7.32912 36.729 6.42368C34.4088 5.63141 31.8339 6.36709 29.825 8.40434L29.7684 8.31946Z" fill="#00A79D"/>
<path d="M39.4189 54.2699C38.7681 54.2699 38.1173 54.185 37.4948 53.9869L10.9539 46.4604C8.37907 45.7247 6.4267 43.6592 5.57785 40.8013C4.53092 37.2927 5.35148 33.4446 7.69999 30.6999L27.8462 7.32811C29.94 4.89472 32.8544 3.87609 35.6557 4.58347C38.5701 5.34744 40.7205 7.80913 41.4279 11.148L47.8226 42.0463C48.5866 45.7247 47.3982 49.5446 44.7384 52.0062C43.1539 53.5059 41.3147 54.2699 39.4189 54.2699ZM27.9028 7.41299L27.9877 7.46958L7.84146 30.8414C5.52126 33.5012 4.72899 37.2927 5.77591 40.7448C6.62477 43.546 8.52055 45.5549 11.0105 46.2623L37.5514 53.7889C39.9848 54.4679 42.5597 53.7889 44.5686 51.8931C47.1718 49.4597 48.3319 45.7247 47.5679 42.1029L41.1732 11.2046C40.4941 7.92231 38.4003 5.51721 35.5708 4.78154C32.8544 4.07416 30.0249 5.06448 27.9877 7.44128L27.9028 7.41299Z" fill="#00A79D"/>
<path d="M42.3634 54.7238C41.854 54.7238 41.373 54.6673 40.8637 54.5824L10.7576 49.1214C7.75832 48.5838 5.35323 46.4899 4.13653 43.434C2.77836 39.9254 3.34427 35.9075 5.60788 32.9365L25.6692 6.56538C27.7913 3.79244 30.9604 2.46258 34.1295 3.00019C37.3551 3.56609 39.93 5.94288 41.0335 9.3383L51.1066 41.1421C52.2667 44.7639 51.4178 48.7535 48.9561 51.5831C47.1453 53.6203 44.825 54.7238 42.3634 54.7238ZM32.7147 3.11336C30.0832 3.11336 27.5933 4.41494 25.839 6.70685L5.80595 33.0497C3.57063 35.9641 3.03302 39.9254 4.36289 43.3492C5.523 46.3485 7.8715 48.3857 10.8142 48.9233L40.892 54.3843C43.8064 54.9219 46.6642 53.8467 48.7581 51.4699C51.1915 48.697 52.012 44.7922 50.8802 41.227L40.8071 9.42319C39.7602 6.08435 37.2419 3.76415 34.0729 3.22654C33.6201 3.14166 33.1674 3.11336 32.7147 3.11336Z" fill="#00A79D"/>
<path d="M45.5076 54.9475C45.2246 54.9475 44.9417 54.9475 44.6587 54.9192L10.8176 51.9482C7.36561 51.637 4.36631 49.5149 2.81008 46.2892C1.11236 42.7523 1.39532 38.7061 3.57405 35.4521L23.2109 5.99682C25.3048 2.85605 28.7002 1.18662 32.2937 1.49787C35.8872 1.80912 38.9431 4.07274 40.471 7.49646L54.7035 39.9228C56.288 43.5163 55.8636 47.5625 53.5717 50.7315C51.591 53.3913 48.6483 54.9475 45.5076 54.9475ZM31.4165 1.63935C28.2192 1.63935 25.2482 3.25218 23.3524 6.0817L3.71552 35.537C1.59338 38.7344 1.31043 42.724 2.97985 46.176C4.50779 49.3451 7.45049 51.4389 10.8176 51.7219L44.687 54.6929C48.0541 54.9758 51.3081 53.4479 53.3736 50.5901C55.6089 47.4776 56.0334 43.488 54.4771 39.9794L40.2446 7.55305C38.7733 4.18592 35.774 1.9789 32.2371 1.66765C31.9824 1.63936 31.6995 1.63935 31.4165 1.63935Z" fill="#00A79D"/>
<path d="M48.8729 54.8927H11.1271C7.10917 54.8927 3.51568 52.8272 1.50672 49.3469C-0.50224 45.8665 -0.50224 41.7354 1.50672 38.2551L20.3796 5.54587C22.3886 2.06556 25.9821 0 30 0C34.0179 0 37.6114 2.06556 39.6204 5.54587L58.4933 38.2551C60.5022 41.7354 60.5022 45.8665 58.4933 49.3469C56.4843 52.8272 52.8908 54.8927 48.8729 54.8927ZM20.4928 5.60245L20.5777 5.65904L1.70479 38.34C-0.275878 41.7354 -0.275878 45.8099 1.70479 49.2337C3.68545 52.6291 7.19406 54.6663 11.1271 54.6663H48.9012C52.8342 54.6663 56.3711 52.6291 58.3235 49.2337C60.3042 45.8382 60.3042 41.7637 58.3235 38.34L39.4506 5.63075C37.4699 2.23533 33.9613 0.19807 30.0283 0.19807C26.0953 0.19807 22.5584 2.23533 20.606 5.63075L20.4928 5.60245Z" fill="#00A79D"/>
</svg>
